HIERARCHY
ROOT Hips
{
	OFFSET 0.000000 0.000000 0.000000 
	CHANNELS 6 Xposition Yposition Zposition Zrotation Yrotation Xrotation
	JOINT LeftUpLeg
	{
		OFFSET 1.363060 -1.794630 0.839290 
		CHANNELS 3 Zrotation Yrotation Xrotation
		JOINT LeftLeg
		{
			OFFSET 2.448110 -6.726130 0.000000 
			CHANNELS 3 Zrotation Yrotation Xrotation
			JOINT LeftFoot
			{
				OFFSET 2.562200 -7.039590 0.000000 
				CHANNELS 3 Zrotation Yrotation Xrotation
				JOINT LeftToeBase
				{
					OFFSET 0.157640 -0.433110 2.322550 
					CHANNELS 3 Zrotation Yrotation Xrotation
					End Site
					{
						OFFSET 0.000000 0.000000 0.000000 
					}
				}
			}
		}
	}
	JOINT RightUpLeg
	{
		OFFSET -1.305520 -1.794630 0.839290 
		CHANNELS 3 Zrotation Yrotation Xrotation
		JOINT RightLeg
		{
			OFFSET -2.542530 -6.985550 0.000000 
			CHANNELS 3 Zrotation Yrotation Xrotation
			JOINT RightFoot
			{
				OFFSET -2.568260 -7.056230 0.000000 
				CHANNELS 3 Zrotation Yrotation Xrotation
				JOINT RightToeBase
				{
					OFFSET -0.164730 -0.452590 2.363150 
					CHANNELS 3 Zrotation Yrotation Xrotation
					End Site
					{
						OFFSET 0.000000 0.000000 0.000000 
					}
				}
			}
		}
	}
	JOINT Spine
	{
		OFFSET 0.028270 2.035590 -0.193380 
		CHANNELS 3 Zrotation Yrotation Xrotation
		JOINT Spine1
		{
			OFFSET 0.056720 2.048850 -0.042750 
			CHANNELS 3 Zrotation Yrotation Xrotation
			JOINT Neck1
			{
				OFFSET -0.054170 1.746240 0.172020 
				CHANNELS 3 Zrotation Yrotation Xrotation
				JOINT Head
				{
					OFFSET 0.104070 1.761360 -0.123970 
					CHANNELS 3 Zrotation Yrotation Xrotation
					End Site
					{
						OFFSET 0.000000 0.000000 0.000000 
					}
				}
			}
			JOINT LeftArm
			{
				OFFSET 3.362410 1.200890 -0.311210 
				CHANNELS 3 Zrotation Yrotation Xrotation
				JOINT LeftForeArm
				{
					OFFSET 4.983000 -0.000000 -0.000000 
					CHANNELS 3 Zrotation Yrotation Xrotation
					JOINT LeftHand
					{
						OFFSET 3.483560 -0.000000 -0.000000 
						CHANNELS 3 Zrotation Yrotation Xrotation
						JOINT LeftHandIndex1
						{
							OFFSET 0.715260 -0.000000 -0.000000 
							CHANNELS 3 Zrotation Yrotation Xrotation
							End Site
							{
								OFFSET 0.000000 0.000000 0.000000 
							}
						}
					}
				}
			}
			JOINT RightArm
			{
				OFFSET -3.136600 1.374050 -0.404650 
				CHANNELS 3 Zrotation Yrotation Xrotation
				JOINT RightForeArm
				{
					OFFSET -5.241900 -0.000000 -0.000000 
					CHANNELS 3 Zrotation Yrotation Xrotation
					JOINT RightHand
					{
						OFFSET -3.444170 -0.000000 -0.000000 
						CHANNELS 3 Zrotation Yrotation Xrotation
						JOINT RightHandIndex1
						{
							OFFSET -0.622530 -0.000000 -0.000000 
							CHANNELS 3 Zrotation Yrotation Xrotation
							End Site
							{
								OFFSET 0.000000 0.000000 0.000000 
							}
						}
					}
				}
			}
		}
	}
}
MOTION
Frames: 15
Frame Time: 0.041667
16.200964 19.146344 8.757518 -53.242454 -79.974469 43.731973 -56.858672 -24.054762 -4.311271 13.233932 10.460082 59.763413 -3.972553 -23.880010 -53.222978 3.008200 10.708300 31.302400 67.715128 2.150656 5.693452 -12.283911 -10.953728 48.134846 -0.155784 15.773434 -53.450965 -0.491400 -4.494600 12.472500 32.922223 -12.423610 51.639227 -11.936105 -2.084692 -21.210145 3.765130 -2.753348 51.084956 2.777600 -1.693500 13.707900 -103.881962 6.385416 11.024832 36.122222 -50.340193 -6.614054 3.009859 8.136259 -1.291378 -7.125000 0.000000 0.000000 99.679065 -1.237017 10.995724 -28.174602 37.891003 -3.318254 -3.967981 0.648592 -5.014490 7.125000 0.000000 0.000000 
16.195717 19.102189 8.770837 -54.251797 -79.707620 44.986819 -56.759217 -22.033869 -4.621415 13.648902 10.248908 58.913234 -2.699535 -21.483491 -54.508931 0.596600 4.944700 13.750900 67.664520 2.959358 4.734431 -12.353496 -11.140929 49.351487 -0.198125 15.793385 -53.727305 -0.473200 -4.411700 12.237800 33.533051 -12.572177 51.151956 -12.056769 -2.119879 -20.960364 3.534088 -2.687895 51.675227 2.743600 -1.738900 13.887900 -104.078090 6.355247 10.775260 36.068870 -50.345444 -6.626635 3.152438 8.077182 -1.127902 -7.125000 0.000000 0.000000 99.660433 -1.156081 11.137840 -28.146124 37.817926 -3.297003 -3.938114 0.667974 -4.840386 7.125000 0.000000 0.000000 
16.188290 19.113974 8.784559 -50.842781 -80.450888 41.698835 -57.338382 -22.263372 -4.654651 13.615613 10.384370 58.817020 -2.469142 -21.141093 -54.567334 0.609300 4.996200 13.897700 67.194487 2.997916 4.817047 -12.426447 -10.978737 49.247074 -0.000125 16.128277 -53.661041 -0.535500 -4.688800 13.023000 32.214703 -12.216044 51.992198 -11.473224 -1.890194 -21.253453 3.707873 -2.943979 52.540154 2.740600 -1.851200 14.120200 -103.954083 6.319435 11.005863 36.167724 -50.385307 -6.645595 3.090424 8.096405 -1.160241 -7.125000 0.000000 0.000000 99.601435 -1.120393 11.386036 -28.178493 37.885662 -3.315524 -3.952870 0.653099 -5.112414 7.125000 0.000000 0.000000 
16.177716 19.147555 8.798524 -49.230853 -81.000932 40.140477 -57.932406 -24.270125 -4.043321 13.174136 10.534170 59.082130 -3.617123 -23.375814 -53.365921 3.123700 10.892600 31.918500 66.776032 2.662945 4.900076 -12.408621 -10.896963 49.267070 0.237516 16.663000 -53.558609 -0.567300 -4.823800 13.406800 31.740229 -11.979028 52.337253 -11.196066 -1.677583 -21.333848 3.803718 -3.171584 53.068199 2.734900 -1.977100 14.265200 -103.877578 6.292930 11.150129 36.231796 -50.388459 -6.638326 2.963025 8.121338 -1.067059 -7.125000 0.000000 0.000000 99.502359 -1.157623 11.728434 -28.304008 38.022329 -3.363304 -3.960635 0.620303 -5.512829 7.125000 0.000000 0.000000 
16.166576 19.157161 8.812893 -51.257342 -80.643954 42.232672 -57.782917 -25.006968 -3.881355 13.060002 10.527303 59.277119 -3.966495 -24.065713 -53.161698 3.964800 12.113400 36.134300 66.813760 2.150360 4.825171 -12.298005 -10.916315 49.160106 0.375552 17.057709 -53.413419 -0.561800 -4.801000 13.341700 32.390226 -12.115948 51.893662 -11.539650 -1.760990 -21.076505 3.772151 -3.277712 53.446489 2.706700 -2.053600 14.393500 -103.806885 6.270101 11.076562 36.252082 -50.380294 -6.645596 2.988060 8.148620 -1.056902 -7.125000 0.000000 0.000000 99.656251 -1.083442 11.589084 -28.260815 37.974978 -3.344263 -3.953273 0.659321 -5.148242 7.125000 0.000000 0.000000 
16.157616 19.138918 8.826858 -52.736134 -80.335427 43.680140 -57.587694 -24.377568 -3.881224 13.145227 10.433169 59.128061 -3.862695 -23.825879 -53.304009 3.491300 11.450900 33.816000 66.918679 2.215916 4.699713 -12.238475 -10.964782 49.359140 0.483380 17.357773 -53.320913 -0.690500 -5.312300 14.801400 32.485940 -12.165645 51.759395 -11.749635 -1.853204 -20.967833 3.622996 -3.295029 54.066329 2.654700 -2.103600 14.610200 -103.706246 6.263156 10.990338 36.242519 -50.345555 -6.657027 3.127721 8.107438 -1.068297 -7.125000 0.000000 0.000000 99.876750 -0.956405 11.250950 -28.154918 37.890948 -3.296510 -3.926492 0.749581 -4.623661 7.125000 0.000000 0.000000 
16.150432 19.111069 8.839127 -52.790446 -80.403217 43.450458 -57.684933 -22.584829 -3.629159 13.383571 10.312219 58.567434 -3.098173 -22.453499 -54.034560 1.779600 8.391000 23.908000 66.743750 2.534853 4.654200 -12.251774 -11.019476 49.879209 0.564032 17.581951 -53.362037 -0.856600 -5.902200 16.501000 32.192408 -12.110244 51.947832 -11.604762 -1.804020 -21.000154 3.588037 -3.304004 54.421486 2.669600 -2.145200 14.727700 -103.714431 6.246277 10.977738 36.175891 -50.280700 -6.646720 3.239996 8.052469 -1.138140 -7.125000 0.000000 0.000000 99.885718 -0.867468 11.375310 -28.147291 37.883443 -3.270317 -3.870024 0.860402 -4.748608 7.125000 0.000000 0.000000 
16.143005 19.095328 8.849621 -51.348765 -81.044215 41.488729 -58.139212 -20.832866 -2.945793 13.537116 10.257752 57.891459 -2.374818 -21.235373 -54.651115 0.731800 5.465500 15.241200 66.213098 2.721021 4.818766 -12.368898 -11.055835 50.456747 0.471322 17.375015 -53.615610 -0.817400 -5.769100 16.115800 30.749860 -11.763827 52.945528 -10.922131 -1.567864 -21.321510 3.332707 -3.212473 54.613308 2.608500 -2.172200 14.754200 -103.665145 6.198513 10.967773 36.188223 -50.269868 -6.654464 3.286557 8.072050 -1.215710 -7.125000 0.000000 0.000000 99.885508 -0.723155 11.833406 -28.078828 37.902937 -3.263450 -3.870909 0.906048 -5.203833 7.125000 0.000000 0.000000 
16.136144 19.088547 8.859066 -49.399061 -81.576838 39.261045 -58.473325 -19.963001 -2.521013 13.500702 10.255591 57.607207 -2.317486 -21.263888 -54.652218 0.696800 5.335800 14.868800 65.918310 2.982608 5.036848 -12.548110 -11.080501 50.689990 0.108790 16.494536 -54.025734 -0.552300 -4.760900 13.227800 29.882903 -11.587763 53.466980 -10.346234 -1.405654 -21.632369 3.424118 -3.197566 54.888983 2.662700 -2.173600 14.797300 -103.704353 6.275791 10.620099 36.300436 -50.342747 -6.676592 3.209550 8.098604 -1.138806 -7.125000 0.000000 0.000000 99.797131 -0.629838 12.469192 -27.999261 37.881483 -3.282950 -3.951950 0.824390 -5.598393 7.125000 0.000000 0.000000 
16.128314 19.081847 8.868510 -49.643055 -81.428237 39.628715 -58.399208 -19.710322 -2.550307 13.476429 10.222696 57.604646 -2.452159 -21.541285 -54.551600 0.718900 5.418200 15.105300 66.026137 3.308526 4.899576 -12.646488 -11.152264 50.837519 -0.167088 15.803514 -54.237548 -0.388000 -4.000200 11.077100 30.843583 -11.897901 52.805475 -10.382743 -1.461538 -21.527324 3.563345 -3.094168 55.061005 2.794800 -2.140300 14.834400 -103.849826 6.424577 10.227860 36.404714 -50.412735 -6.688336 3.064687 8.136688 -1.148205 -7.125000 0.000000 0.000000 99.520255 -0.693719 13.218119 -28.147763 37.993126 -3.354032 -3.943250 0.637517 -6.116585 7.125000 0.000000 0.000000 
16.115721 19.109131 8.882152 -51.198471 -81.279139 41.359130 -58.301100 -20.929010 -2.480193 13.218014 10.241210 58.055516 -3.482170 -23.413453 -53.586461 2.259400 9.386700 27.012800 66.148751 3.208343 4.865259 -12.580322 -11.141104 50.731400 -0.044969 16.108670 -54.089790 -0.472900 -4.410300 12.233800 31.057387 -11.877190 52.697886 -10.591801 -1.469177 -21.410719 3.305535 -3.104167 55.310982 2.694900 -2.203300 14.910500 -103.665374 6.450840 10.364475 36.485314 -50.414780 -6.708246 3.065765 8.175696 -1.205238 -7.125000 0.000000 0.000000 99.565674 -0.738812 13.323493 -28.293335 38.188226 -3.412281 -3.943169 0.607121 -6.424152 7.125000 0.000000 0.000000 
16.108699 19.084430 8.892727 -50.945655 -81.221749 41.046217 -58.019430 -19.697951 -2.960179 13.418778 10.177656 57.874651 -2.844368 -22.291712 -54.298906 0.767900 5.595600 15.615300 66.011021 3.058885 4.790045 -12.523065 -11.114667 50.823227 0.144463 16.613879 -54.007461 -0.568800 -4.830300 13.425100 30.197698 -11.609453 53.261071 -10.608347 -1.424495 -21.519038 3.520784 -3.515420 55.606819 2.619600 -2.337600 14.993300 -103.244768 6.436902 10.871419 36.566873 -50.378133 -6.734452 3.141042 8.219024 -1.491392 -7.125000 0.000000 0.000000 99.936572 -0.616535 12.709994 -28.196939 38.172304 -3.357553 -3.967693 0.879985 -5.871788 7.125000 0.000000 0.000000 
16.096348 19.077085 8.902979 -49.707687 -81.383990 39.763592 -58.119641 -19.658503 -2.935833 13.397201 10.212114 57.896506 -2.816635 -22.295651 -54.323058 0.707400 5.375600 14.983000 65.767270 2.836727 4.861460 -12.527610 -11.094306 50.880505 0.153407 16.695675 -54.108185 -0.571000 -4.839400 13.451000 29.460031 -11.434870 53.733602 -10.409683 -1.355904 -21.591460 3.769370 -3.756328 55.783616 2.629700 -2.399800 15.040500 -102.930711 6.477237 11.184347 36.675980 -50.347277 -6.747620 3.100798 8.288640 -1.987678 -7.125000 0.000000 0.000000 100.101808 -0.493165 12.611793 -28.149604 38.170915 -3.317833 -3.919037 1.043438 -5.484597 7.125000 0.000000 0.000000 
16.082464 19.070869 8.914037 -50.498543 -81.387303 40.542482 -58.122726 -19.643871 -2.855460 13.380000 10.219929 57.934717 -2.814626 -22.345558 -54.367911 0.706900 5.373700 14.977700 65.713222 2.803270 4.857286 -12.532239 -11.119250 50.988467 0.115204 16.647418 -54.183592 -0.575300 -4.857400 13.502200 29.302659 -11.362412 53.871316 -10.324138 -1.299625 -21.527150 3.495483 -3.661874 55.938427 2.560500 -2.421100 15.098600 -102.804670 6.462120 11.221493 36.670378 -50.256489 -6.718855 3.082577 8.249725 -2.249875 -7.125000 0.000000 0.000000 100.022558 -0.509150 13.189521 -28.279493 38.365518 -3.401187 -3.948185 0.893292 -6.114914 7.125000 0.000000 0.000000 
16.071809 19.066106 8.927437 -52.507198 -81.152583 42.499569 -58.015602 -19.416195 -2.633717 13.377177 10.187463 57.951278 -2.855208 -22.450559 -54.382195 0.772600 5.612300 15.663400 65.671381 2.579442 4.792239 -12.478991 -11.161702 51.082538 0.165504 16.844691 -54.182653 -0.530700 -4.668200 12.964500 30.375918 -11.595188 53.227958 -10.512808 -1.313631 -21.300705 3.246920 -3.485692 56.010364 2.573400 -2.434900 15.126200 -103.017210 6.517914 10.901992 36.563643 -50.171044 -6.683234 3.139347 8.179937 -2.283759 -7.125000 0.000000 0.000000 99.839692 -0.559261 13.696822 -28.422744 38.501352 -3.477868 -3.989410 0.763758 -6.299163 7.125000 0.000000 0.000000 
